<?xml version="1.0" encoding="UTF-8" standalone="no"?>
<!-- Created with Inkscape (http://www.inkscape.org/) -->

<svg
   xmlns:dc="http://purl.org/dc/elements/1.1/"
   xmlns:cc="http://creativecommons.org/ns#"
   xmlns:rdf="http://www.w3.org/1999/02/22-rdf-syntax-ns#"
   xmlns:svg="http://www.w3.org/2000/svg"
   xmlns="http://www.w3.org/2000/svg"
   xmlns:sodipodi="http://sodipodi.sourceforge.net/DTD/sodipodi-0.dtd"
   xmlns:inkscape="http://www.inkscape.org/namespaces/inkscape"
   version="1.1"
   id="svg2"
   width="128"
   height="128"
   viewBox="0 0 128 128"
   sodipodi:docname="ven_groceries_01.svg"
   inkscape:version="0.92.5 (2060ec1f9f, 2020-04-08)"
   inkscape:export-filename="/home/ernestosimionato/Escritorio/ven_groceries_01.png"
   inkscape:export-xdpi="96"
   inkscape:export-ydpi="96">
  <metadata
     id="metadata8">
    <rdf:RDF>
      <cc:Work
         rdf:about="">
        <dc:format>image/svg+xml</dc:format>
        <dc:type
           rdf:resource="http://purl.org/dc/dcmitype/StillImage" />
        <dc:title></dc:title>
      </cc:Work>
    </rdf:RDF>
  </metadata>
  <defs
     id="defs6" />
  <sodipodi:namedview
     pagecolor="#ffffff"
     bordercolor="#666666"
     borderopacity="1"
     objecttolerance="10"
     gridtolerance="10"
     guidetolerance="10"
     inkscape:pageopacity="0"
     inkscape:pageshadow="2"
     inkscape:window-width="1920"
     inkscape:window-height="1055"
     id="namedview4"
     showgrid="false"
     inkscape:zoom="1.84375"
     inkscape:cx="64"
     inkscape:cy="64"
     inkscape:window-x="0"
     inkscape:window-y="0"
     inkscape:window-maximized="1"
     inkscape:current-layer="svg2" />
  <g
     id="g817"
     transform="translate(-0.54237492,-0.54237287)">
    <path
       style="fill:#fecd61"
       d="m 24.624765,126.53089 c -4.177109,-1.48892 -10.24925,-6.77239 -11.190071,-9.73665 -0.319063,-1.00528 -2.282976,-2.69652 -4.364252,-3.7583 C 3.0157505,109.94706 2.3135982,106.82463 5.5591524,97.421412 7.907066,90.618894 8.1779171,88.632987 7.6345199,82.204606 7.0860275,75.715949 6.6489206,74.474462 4.0620557,72.057969 0.50663407,68.736708 -0.40421611,65.558557 0.24950401,58.755162 0.64940181,54.593346 1.3396286,53.085734 3.8872991,50.809391 5.8118386,49.089815 8.1639987,48 9.95084,48 h 2.919287 l -0.550724,-8.75 c -0.544617,-8.65296 -0.516121,-8.793176 2.569449,-12.643183 1.716095,-2.14125 4.918142,-5.27505 7.115661,-6.963999 C 25.86266,16.677556 27.076426,13.783302 25,12.5 23.168864,11.368296 23.856987,4.1430134 26,2 c 1.644444,-1.64444444 3.333333,-2 9.5,-2 6.166667,0 7.855556,0.35555556 9.5,2 2.143013,2.1430134 2.831136,9.368296 1,10.5 -2.047178,1.265225 -0.867318,3.797324 3.75,8.047885 2.6125,2.404988 5.019916,4.390572 5.349814,4.41241 0.329897,0.02184 0.383881,-3.324976 0.119964,-7.437363 -0.376418,-5.865389 -0.123526,-8.0208852 1.173239,-10 1.874404,-2.8607009 5.12102,-3.2726977 7.662806,-0.9724128 1.573205,1.4237312 1.798053,1.3074098 2.749712,-1.4225214 1.998892,-5.73402495 8.359649,-6.5772262 11.656726,-1.5452508 l 1.707672,2.6062372 2.165034,-2.0203625 C 87.770124,-0.90334948 94,1.4098845 94,8.5 c 0,1.925 0.170044,3.5 0.377876,3.5 0.207832,0 2.011621,-0.682622 4.008421,-1.516939 2.045463,-0.8546472 4.724033,-1.2424906 6.135113,-0.8883322 1.43767,0.3608338 3.14207,0.099519 4.00114,-0.6134472 2.00981,-1.6679918 9.09365,-0.658328 12.32909,1.7572704 5.48587,4.095793 6.64836,6.821472 6.64836,15.588296 0,7.12997 -0.41068,9.040184 -3.2176,14.966195 l -3.21761,6.793043 3.09608,2.766348 c 2.49639,2.230524 3.19168,3.76123 3.58963,7.902728 0.65372,6.803395 -0.25713,9.981546 -3.81256,13.302807 -2.58686,2.416493 -3.02397,3.65798 -3.57246,10.146637 -0.5434,6.428381 -0.27255,8.414288 2.07537,15.216806 3.24555,9.403218 2.5434,12.525648 -3.51129,15.614528 -2.08128,1.06178 -4.06107,2.80306 -4.39955,3.8695 -0.97519,3.07256 -8.0266,8.86098 -12.20923,10.02244 -6.074193,1.6867 -72.806887,1.34574 -77.696015,-0.39699 z M 79.492237,38.75 c -0.393759,-4.5375 -0.849345,-8.39625 -1.012414,-8.575 -0.577964,-0.633541 -37.673637,-0.31452 -38.317687,0.329531 -0.359992,0.359992 -0.81639,4.218742 -1.014218,8.575 L 38.78823,47 h 20.709966 20.709966 z"
       id="path831"
       inkscape:connector-curvature="0" />
    <path
       style="fill:#75b1e1"
       d="m 24.624765,126.53089 c -4.177109,-1.48892 -10.24925,-6.77239 -11.190071,-9.73665 -0.319063,-1.00528 -2.282976,-2.69652 -4.364252,-3.7583 C 3.0157505,109.94706 2.3135982,106.82463 5.5591524,97.421412 7.907066,90.618894 8.1779171,88.632987 7.6345199,82.204606 7.0860275,75.715949 6.6489206,74.474462 4.0620557,72.057969 0.50663407,68.736708 -0.40421611,65.558557 0.24950401,58.755162 0.64940181,54.593346 1.3396286,53.085734 3.8872991,50.809391 5.8118386,49.089815 8.1639987,48 9.95084,48 h 2.919287 l -0.550724,-8.75 c -0.544617,-8.65296 -0.516121,-8.793176 2.569449,-12.643183 1.716095,-2.14125 4.918142,-5.27505 7.115661,-6.963999 C 25.86266,16.677556 27.076426,13.783302 25,12.5 23.168864,11.368296 23.856987,4.1430134 26,2 c 1.644444,-1.64444444 3.333333,-2 9.5,-2 6.166667,0 7.855556,0.35555556 9.5,2 2.143013,2.1430134 2.831136,9.368296 1,10.5 -2.047178,1.265225 -0.867318,3.797324 3.75,8.047885 2.6125,2.404988 5.019916,4.390572 5.349814,4.41241 0.329897,0.02184 0.383881,-3.324976 0.119964,-7.437363 -0.376418,-5.865389 -0.123526,-8.0208852 1.173239,-10 1.874404,-2.8607009 5.12102,-3.2726977 7.662806,-0.9724128 1.573205,1.4237312 1.798053,1.3074098 2.749712,-1.4225214 1.998892,-5.73402495 8.359649,-6.5772262 11.656726,-1.5452508 l 1.707672,2.6062372 2.165034,-2.0203625 C 87.814167,-0.94444994 94,1.409165 94,8.6069888 c 0,3.0387592 0.275687,3.4952532 1.75,2.8977172 5.91097,-2.3957032 7.34649,-2.6695173 8.58904,-1.6382905 0.94662,0.7856215 1.91129,0.6465495 3.56894,-0.5145134 2.84323,-1.9914787 9.35311,-1.2940772 12.94366,1.3866499 5.48587,4.095793 6.64836,6.821472 6.64836,15.588296 0,7.12997 -0.41068,9.040184 -3.2176,14.966195 l -3.21761,6.793043 3.09608,2.766348 c 2.49639,2.230524 3.19168,3.76123 3.58963,7.902728 0.65372,6.803395 -0.25713,9.981546 -3.81256,13.302807 -2.58686,2.416493 -3.02397,3.65798 -3.57246,10.146637 -0.5434,6.428381 -0.27255,8.414288 2.07537,15.216806 3.24555,9.403218 2.5434,12.525648 -3.51129,15.614528 -2.08128,1.06178 -4.06107,2.80306 -4.39955,3.8695 -0.97519,3.07256 -8.0266,8.86098 -12.20923,10.02244 -6.074193,1.6867 -72.806887,1.34574 -77.696015,-0.39699 z M 17.62895,63.763228 c 3.237413,-8.160226 6.093182,-10.41314 11.834329,-9.336095 6.967921,1.30719 10.149414,7.200964 7.561472,14.007767 L 36.049502,71 H 64 91.950498 l -0.975249,-2.5651 c -2.602045,-6.843897 0.458067,-12.67516 7.327964,-13.96396 6.000047,-1.125617 8.785707,1.019351 12.067837,9.292288 3.04244,7.668765 4.0655,8.361878 9.01431,6.107052 C 124.4687,67.554157 125.43155,57.437593 120.91963,53.75 118.93834,52.13069 114.68757,52 64,52 2.6044078,52 5.5568518,51.642022 4.3414239,59.233483 3.2855102,65.828631 6.7690252,70.74603 12.62895,70.93232 c 1.731519,0.05505 2.664913,-1.283272 5,-7.169092 z M 79.492237,38.75 c -0.393759,-4.5375 -0.849345,-8.39625 -1.012414,-8.575 -0.577964,-0.633541 -37.673637,-0.31452 -38.317687,0.329531 -0.359992,0.359992 -0.81639,4.218742 -1.014218,8.575 L 38.78823,47 h 20.709966 20.709966 z"
       id="path829"
       inkscape:connector-curvature="0" />
    <path
       style="fill:#e19743"
       d="M 26,126.82505 C 21.282327,125.48446 16.447067,121.66846 13.44969,116.9203 12.088561,114.76414 10.383997,113 9.6617694,113 7.3317291,113 4,108.49363 4,105.3421 4,103.67615 4.9292736,99.655153 6.0650525,96.40655 7.6344613,91.917661 8.0527377,88.640535 7.8077615,82.752714 7.5165843,75.754485 7.2142419,74.75398 4.6807173,72.404763 1.2626842,69.235384 0,66.127844 0,60.88524 0,53.768113 4.9180344,48 10.986271,48 c 2.009788,0 2.060924,-0.326749 1.406929,-8.990076 l -0.678661,-8.990075 7.289249,-7.160281 C 26.166875,15.823217 26.273194,15.644409 25.146519,12.528645 23.598757,8.2483861 23.703673,5.868078 25.556704,3.2225062 26.954938,1.2262481 27.967152,1 35.5,1 c 7.532848,0 8.545062,0.2262481 9.943296,2.2225062 1.870796,2.6709355 1.957963,5.0258359 0.35057,9.4710008 -1.184732,3.276318 -1.118191,3.4143 3.75,7.776187 2.725874,2.442375 5.287895,4.460848 5.69338,4.485494 0.405486,0.02465 0.49336,-3.217688 0.195277,-7.205188 -0.616534,-8.2474816 0.720969,-12.0500515 4.424974,-12.5803575 1.269089,-0.1816966 3.144797,0.4274457 4.168241,1.3536497 1.770819,1.60257 1.931674,1.5143975 3.326245,-1.8232807 2.328627,-5.57318905 7.341818,-5.8306595 11.029024,-0.5664352 l 1.483577,2.1181024 2.702567,-2.1258393 C 87.917623,-0.08284271 94,2.4191425 94,8.8287407 94,10.572933 94.168423,12 94.374273,12 c 0.205851,0 2.312134,-0.683717 4.68063,-1.519371 C 101.61987,9.5756548 103.72669,9.3266921 104.26496,9.8649573 105.32764,10.927642 109,10.166351 109,8.8833686 109,7.23089 114.56155,7.9925055 118.97957,10.25 c 2.42184,1.2375 5.29112,3.468838 6.37618,4.958529 4.05627,5.568923 2.93724,18.416358 -2.5391,29.150862 l -1.99962,3.919584 2.49728,2.110513 c 3.40424,2.877 4.68569,5.743003 4.68569,10.479671 0,5.258513 -1.25997,8.363712 -4.68072,11.535604 -2.53352,2.349217 -2.83586,3.349722 -3.12704,10.347951 -0.24498,5.887821 0.1733,9.164947 1.74271,13.653836 2.72739,7.80102 2.6602,11.6857 -0.2494,14.41914 -1.27295,1.19587 -2.8423,2.17431 -3.48746,2.17431 -0.64515,0 -2.28665,1.76414 -3.64778,3.9203 -3.10209,4.91403 -7.87442,8.5621 -13.05031,9.97592 -5.103736,1.39412 -70.560648,1.33241 -75.5,-0.0712 z M 17.62895,63.763228 c 3.237413,-8.160226 6.093182,-10.41314 11.834329,-9.336095 6.967921,1.30719 10.149414,7.200964 7.561472,14.007767 L 36.049502,71 H 64 91.950498 l -0.975249,-2.5651 c -2.602045,-6.843897 0.458067,-12.67516 7.327964,-13.96396 6.000047,-1.125617 8.785707,1.019351 12.067837,9.292288 3.04244,7.668765 4.0655,8.361878 9.01431,6.107052 C 124.4687,67.554157 125.43155,57.437593 120.91963,53.75 118.93834,52.13069 114.68757,52 64,52 2.6044078,52 5.5568518,51.642022 4.3414239,59.233483 3.2855102,65.828631 6.7690252,70.74603 12.62895,70.93232 c 1.731519,0.05505 2.664913,-1.283272 5,-7.169092 z M 34.393011,45.418213 C 34.726855,44.548229 35,40.977524 35,37.483312 35,33.9891 35.438862,29.975904 35.975249,28.5651 36.854638,26.252133 37.477163,26 42.308582,26 c 2.946947,0 5.652043,-0.293958 6.011325,-0.653241 0.359282,-0.359282 -0.778143,-1.709282 -2.527613,-3 C 43.154171,20.400414 41.392909,20 35.46983,20 c -6.615881,0 -7.466556,0.253222 -11.55572,3.439817 -6.910691,5.385346 -8.23734,8.362816 -7.407578,16.625228 L 17.202983,47 h 8.29152 c 6.638291,0 8.412546,-0.315389 8.898508,-1.581787 z M 79.668208,38.853324 C 79.322684,34.372653 78.869326,30.535993 78.660747,30.327414 77.787272,29.453939 51.980697,28.954194 46,29.694938 L 39.5,30.5 39.209558,38.75 38.919115,47 h 20.68866 20.68866 z M 80.206937,20.75 c 3.056085,-2.3375 6.274552,-4.7 7.152148,-5.25 0.877596,-0.55 1.888332,-2.9125 2.24608,-5.25 C 90.197288,6.3811142 90.06537,6 88.134081,6 86.787754,6 84.887594,7.5529493 82.933861,10.25 81.240584,12.5875 79.34032,14.5 78.71105,14.5 78.081781,14.5 76.96321,12.3625 76.225338,9.75 75.229628,6.2246059 74.394795,5 72.987189,5 c -2.156527,0 -3.630201,5.301901 -2.606913,9.379004 0.366859,1.461681 0.06499,2.836492 -0.776067,3.53451 -1.098755,0.911886 -2.12926,0.09451 -5.107791,-4.051385 -3.277588,-4.5621632 -3.853539,-4.9753729 -4.736285,-3.397994 -0.953842,1.704422 -0.34708,11.777147 0.82353,13.671234 C 60.877567,24.610916 64.16282,25 67.884226,25 c 6.421948,0 7.048891,-0.216227 12.322711,-4.25 z M 41,14.5 C 41,13.348485 39.722222,13 35.5,13 31.277778,13 30,13.348485 30,14.5 c 0,1.151515 1.277778,1.5 5.5,1.5 4.222222,0 5.5,-0.348485 5.5,-1.5 z"
       id="path827"
       inkscape:connector-curvature="0" />
    <path
       style="fill:#cf5662"
       d="M 26,126.82505 C 21.282327,125.48446 16.447067,121.66846 13.44969,116.9203 12.088561,114.76414 10.383997,113 9.6617694,113 7.3317291,113 4,108.49363 4,105.3421 4,103.67615 4.9292736,99.655153 6.0650525,96.40655 7.6344613,91.917661 8.0527377,88.640535 7.8077615,82.752714 7.5165843,75.754485 7.2142419,74.75398 4.6807173,72.404763 1.2626842,69.235384 0,66.127844 0,60.88524 0,53.768113 4.9180344,48 10.986271,48 c 2.009788,0 2.060924,-0.326749 1.406929,-8.990076 l -0.678661,-8.990075 7.289249,-7.160281 C 26.166875,15.823217 26.273194,15.644409 25.146519,12.528645 23.598757,8.2483861 23.703673,5.868078 25.556704,3.2225062 26.954938,1.2262481 27.967152,1 35.5,1 c 7.532848,0 8.545062,0.2262481 9.943296,2.2225062 1.870796,2.6709355 1.957963,5.0258359 0.35057,9.4710008 -1.184732,3.276318 -1.118191,3.4143 3.75,7.776187 2.725874,2.442375 5.287895,4.460848 5.69338,4.485494 0.405486,0.02465 0.49336,-3.217688 0.195277,-7.205188 -0.616534,-8.2474816 0.720969,-12.0500515 4.424974,-12.5803575 1.269089,-0.1816966 3.144797,0.4274457 4.168241,1.3536497 1.770819,1.60257 1.931674,1.5143975 3.326245,-1.8232807 2.328627,-5.57318905 7.341818,-5.8306595 11.029024,-0.5664352 l 1.483577,2.1181024 2.702567,-2.1258393 C 87.917623,-0.08284271 94,2.4191425 94,8.8287407 94,10.572933 94.168423,12 94.374273,12 c 0.205851,0 2.278767,-0.671944 4.60648,-1.493209 2.327717,-0.8212652 4.634287,-1.2447076 5.125727,-0.9409832 2.24301,1.3862562 0.42052,3.3386762 -4.941469,5.2937542 -3.209243,1.170149 -8.650407,3.947237 -12.091475,6.171306 -4.926628,3.184234 -6.02054,4.328063 -5.146442,5.381286 0.610525,0.735638 1.391079,5.61586 1.734565,10.844938 l 0.624518,9.507415 15.606912,0.489939 c 14.461201,0.453973 15.731231,0.349491 17.300401,-1.42325 3.21854,-3.636089 6.14182,-13.025649 6.22601,-19.997922 0.0695,-5.752847 -0.25399,-7.023148 -2.35961,-9.266818 -1.34207,-1.43005 -4.26707,-3.093916 -6.5,-3.69748 -2.23294,-0.603563 -4.6148,-1.253961 -5.29303,-1.445328 C 107.01749,10.788972 109.15851,8 111.8951,8 c 3.71174,0 11.08692,3.9496 13.46065,7.208529 4.05627,5.568923 2.93724,18.416358 -2.5391,29.150862 l -1.99962,3.919584 2.49728,2.110513 c 3.40424,2.877 4.68569,5.743003 4.68569,10.479671 0,5.258513 -1.25997,8.363712 -4.68072,11.535604 -2.53352,2.349217 -2.83586,3.349722 -3.12704,10.347951 -0.24498,5.887821 0.1733,9.164947 1.74271,13.653836 2.72739,7.80102 2.6602,11.6857 -0.2494,14.41914 -1.27295,1.19587 -2.8423,2.17431 -3.48746,2.17431 -0.64515,0 -2.28665,1.76414 -3.64778,3.9203 -3.10209,4.91403 -7.87442,8.5621 -13.05031,9.97592 -5.103736,1.39412 -70.560648,1.33241 -75.5,-0.0712 z M 16.133897,68.045748 C 20.007309,56.934472 23.947116,53.318273 30.275571,55.065644 36.912062,56.898067 39.249197,62.242796 36.478088,69.25 35.828864,70.891669 37.532568,71 64,71 90.467432,71 92.171136,70.891669 91.521912,69.25 88.750803,62.242796 91.087938,56.898067 97.724429,55.065644 104.05288,53.318273 107.99269,56.934472 111.8661,68.045748 112.70792,70.460587 113.46152,71 115.99344,71 c 7.39777,0 10.91719,-10.504659 5.59314,-16.694236 L 119.17317,51.5 H 64 8.8268327 L 6.4134163,54.305764 C 1.089366,60.495341 4.6087914,71 12.006565,71 c 2.531911,0 3.285514,-0.539413 4.127332,-2.954252 z M 34.393011,45.418213 C 34.726855,44.548229 35,40.977524 35,37.483312 35,33.9891 35.438862,29.975904 35.975249,28.5651 36.854638,26.252133 37.477163,26 42.308582,26 c 2.946947,0 5.652043,-0.293958 6.011325,-0.653241 0.359282,-0.359282 -0.778143,-1.709282 -2.527613,-3 C 43.154171,20.400414 41.392909,20 35.46983,20 c -6.615881,0 -7.466556,0.253222 -11.55572,3.439817 -6.910691,5.385346 -8.23734,8.362816 -7.407578,16.625228 L 17.202983,47 h 8.29152 c 6.638291,0 8.412546,-0.315389 8.898508,-1.581787 z M 79.668208,38.853324 C 79.322684,34.372653 78.869326,30.535993 78.660747,30.327414 77.787272,29.453939 51.980697,28.954194 46,29.694938 L 39.5,30.5 39.209558,38.75 38.919115,47 h 20.68866 20.68866 z M 80.206937,20.75 c 3.056085,-2.3375 6.274552,-4.7 7.152148,-5.25 0.877596,-0.55 1.888332,-2.9125 2.24608,-5.25 C 90.197288,6.3811142 90.06537,6 88.134081,6 86.787754,6 84.887594,7.5529493 82.933861,10.25 81.240584,12.5875 79.34032,14.5 78.71105,14.5 78.081781,14.5 76.96321,12.3625 76.225338,9.75 75.229628,6.2246059 74.394795,5 72.987189,5 c -2.156527,0 -3.630201,5.301901 -2.606913,9.379004 0.366859,1.461681 0.06499,2.836492 -0.776067,3.53451 -1.098755,0.911886 -2.12926,0.09451 -5.107791,-4.051385 -3.277588,-4.5621632 -3.853539,-4.9753729 -4.736285,-3.397994 -0.953842,1.704422 -0.34708,11.777147 0.82353,13.671234 C 60.877567,24.610916 64.16282,25 67.884226,25 c 6.421948,0 7.048891,-0.216227 12.322711,-4.25 z M 41,14.5 C 41,13.348485 39.722222,13 35.5,13 31.277778,13 30,13.348485 30,14.5 30,15.651515 31.277778,16 35.5,16 39.722222,16 41,15.651515 41,14.5 Z M 98.314286,37.685714 C 92.33915,31.710579 90,28.669599 90,26.876844 c 0,-3.313165 1.885119,-5.619085 5.258846,-6.432739 2.461702,-0.593698 3.677025,0.230852 11.283734,7.655574 4.68868,4.576514 8.78431,9.354575 9.10139,10.617913 C 116.54469,42.30634 113.57616,46 109.79123,46 107.16128,46 105.22815,44.599576 98.314286,37.685714 Z M 111,40.275096 C 111,38.323435 98.209441,25 96.335837,25 93.116259,25 94.455969,27.683403 101.09273,34.52792 108.3224,41.983913 111,43.53718 111,40.275096 Z"
       id="path825"
       inkscape:connector-curvature="0" />
    <path
       style="fill:#3f6e92"
       d="M 26,126.82505 C 21.282327,125.48446 16.447067,121.66846 13.44969,116.9203 12.088561,114.76414 10.383997,113 9.6617694,113 7.3317291,113 4,108.49363 4,105.3421 4,103.67615 4.9292736,99.655153 6.0650525,96.40655 7.6344613,91.917661 8.0527377,88.640535 7.8077615,82.752714 7.5165843,75.754485 7.2142419,74.75398 4.6807173,72.404763 1.2626842,69.235384 0,66.127844 0,60.88524 0,53.768113 4.9180344,48 10.986271,48 c 2.009788,0 2.060924,-0.326749 1.406929,-8.990076 l -0.678661,-8.990075 7.289249,-7.160281 C 26.166875,15.823217 26.273194,15.644409 25.146519,12.528645 23.598757,8.2483861 23.703673,5.868078 25.556704,3.2225062 26.954938,1.2262481 27.967152,1 35.5,1 c 7.532848,0 8.545062,0.2262481 9.943296,2.2225062 1.870796,2.6709355 1.957963,5.0258359 0.35057,9.4710008 -1.184732,3.276318 -1.118191,3.4143 3.75,7.776187 2.725874,2.442375 5.287895,4.460848 5.69338,4.485494 0.405486,0.02465 0.49336,-3.217688 0.195277,-7.205188 -0.616534,-8.2474816 0.720969,-12.0500515 4.424974,-12.5803575 1.269089,-0.1816966 3.144797,0.4274457 4.168241,1.3536497 1.770819,1.60257 1.931674,1.5143975 3.326245,-1.8232807 2.328627,-5.57318905 7.341818,-5.8306595 11.029024,-0.5664352 l 1.483577,2.1181024 2.702567,-2.1258393 C 87.917623,-0.08284271 94,2.4191425 94,8.8287407 94,10.572933 94.168423,12 94.374273,12 c 0.205851,0 2.312134,-0.683717 4.68063,-1.519371 2.925457,-1.0321618 4.633227,-1.1924942 5.325727,-0.4999998 1.43833,1.4383298 0.0471,2.5173228 -6.364411,4.9361018 -3.01608,1.137829 -8.285713,3.96885 -11.710296,6.291157 -5.434448,3.685252 -6.051732,4.417624 -4.852526,5.757244 0.813615,0.90888 1.662165,5.262029 2.080572,10.673544 l 0.706582,9.138675 3.629725,0.600319 c 1.996348,0.330175 9.300607,0.605271 16.231684,0.611324 L 116.70392,48 l 3.35532,-7.25 c 4.09452,-8.847211 5.06129,-17.682449 2.48088,-22.672414 C 120.78138,14.676547 115.93349,12 111.53212,12 109.66667,12 109,11.473432 109,10 c 0,-4.3796931 12.20226,-0.4938521 16.35575,5.208529 4.05627,5.568923 2.93724,18.416358 -2.5391,29.150862 l -1.99962,3.919584 2.49728,2.110513 c 3.40424,2.877 4.68569,5.743003 4.68569,10.479671 0,5.258513 -1.25997,8.363712 -4.68072,11.535604 -2.53352,2.349217 -2.83586,3.349722 -3.12704,10.347951 -0.24498,5.887821 0.1733,9.164947 1.74271,13.653836 2.72739,7.80102 2.6602,11.6857 -0.2494,14.41914 -1.27295,1.19587 -2.8423,2.17431 -3.48746,2.17431 -0.64515,0 -2.28665,1.76414 -3.64778,3.9203 -3.10209,4.91403 -7.87442,8.5621 -13.05031,9.97592 -5.103736,1.39412 -70.560648,1.33241 -75.5,-0.0712 z m 79.26265,-5.66443 c 5.61307,-3.48985 6.48008,-5.76168 3.43944,-9.01235 C 106.48115,109.77392 100.12399,94.363611 95.543226,80.25 L 93.839267,75 H 64.002097 34.164928 l -3.165387,9.501377 c -1.937948,5.81704 -3.960351,10.058193 -5.215486,10.937323 -1.42123,0.995469 -1.874268,2.108323 -1.476894,3.627884 0.803025,3.070766 -2.004104,9.924066 -5.377109,13.127616 l -2.836713,2.69421 2.864902,3.06689 c 5.598895,5.99363 5.954368,6.03826 46.041759,5.77992 36.33122,-0.23413 36.5174,-0.24604 40.26265,-2.5746 z M 36.356999,112.00928 C 32.070835,110.27788 31,107.22405 31,96.732039 31,87.636069 31.181656,86.727434 33.454545,84.454545 36.702343,81.206748 41.84661,81.14337 44.825686,84.314451 46.773022,86.387295 47,87.72469 47,97.12589 c 0,9.18159 -0.255506,10.77124 -2.038955,12.68555 C 43.83962,111.01515 42.526424,112 42.042832,112 c -0.483591,0 -1.478561,0.19686 -2.211045,0.43747 -0.732483,0.24061 -2.296138,0.0479 -3.474788,-0.42819 z m 25,-0.0102 C 57.094375,110.29746 56,107.2154 56,96.912352 56,88.671354 56.301267,86.886719 58.07258,84.634859 59.671235,82.602498 61.026624,82 64,82 c 2.973376,0 4.328765,0.602498 5.92742,2.634859 C 71.704266,86.893752 72,88.669408 72,97.079095 c 0,8.772705 -0.237785,10.070935 -2.25,12.284325 -2.668872,2.9357 -5.452047,3.80971 -8.393001,2.63568 z m 24.733722,-0.0985 c -4.351702,-1.72313 -5.025057,-3.71651 -5.058918,-14.976286 -0.02942,-9.78303 0.141667,-10.738652 2.282648,-12.75 3.173566,-2.98141 8.092087,-2.858685 11.231004,0.280231 C 96.823905,86.732996 97,87.625777 97,96.898782 c 0,8.959698 -0.231988,10.244868 -2.25,12.464638 -2.734269,3.00764 -5.456663,3.8053 -8.659279,2.53718 z M 13,77 C 13.854313,75.403701 13.76049,75 12.535184,75 11.666667,75 11,75.868517 11,77 c 0,1.1 0.209167,2 0.464816,2 C 11.720465,79 12.411298,78.1 13,77 Z m 104,-0.5 c 0,-0.825 -0.66088,-1.5 -1.46862,-1.5 -0.89459,0 -1.24363,0.586289 -0.89301,1.5 0.31659,0.825 0.97746,1.5 1.46862,1.5 C 116.59814,78 117,77.325 117,76.5 Z M 84.398211,71.349114 c 6.508859,-0.5502 7.601867,-0.898252 7.065801,-2.25 -3.094571,-7.803292 -0.02282,-13.050742 8.096312,-13.830889 5.954356,-0.572138 7.160936,0.473188 10.655886,9.231775 2.15691,5.405369 2.70915,6.030932 5.57232,6.312116 C 120.70965,71.295404 124,67.451736 124,61.219769 124,57.2763 123.50855,55.886936 121.41944,53.924314 L 118.83887,51.5 H 64 9.1611281 L 6.580564,53.924314 C 4.4914487,55.886936 4,57.2763 4,61.219769 c 0,6.231967 3.290347,10.075635 8.211466,9.592347 2.863172,-0.281184 3.415418,-0.906747 5.572327,-6.312116 3.494945,-8.758587 4.701526,-9.803913 10.655883,-9.231775 8.160721,0.784142 11.189979,6.018527 8.059607,13.92654 -0.57054,1.441311 0.127104,1.750137 4.664924,2.065018 9.952098,0.690579 35.496846,0.743361 43.234004,0.08933 z M 34.393011,45.418213 C 34.726855,44.548229 35,40.977524 35,37.483312 35,33.9891 35.438862,29.975904 35.975249,28.5651 36.854638,26.252133 37.477163,26 42.308582,26 c 2.946947,0 5.652043,-0.293958 6.011325,-0.653241 0.359282,-0.359282 -0.778143,-1.709282 -2.527613,-3 C 43.154171,20.400414 41.392909,20 35.46983,20 c -6.615881,0 -7.466556,0.253222 -11.55572,3.439817 -6.910691,5.385346 -8.23734,8.362816 -7.407578,16.625228 L 17.202983,47 h 8.29152 c 6.638291,0 8.412546,-0.315389 8.898508,-1.581787 z M 79.668208,38.853324 C 79.322684,34.372653 78.869326,30.535993 78.660747,30.327414 77.787272,29.453939 51.980697,28.954194 46,29.694938 L 39.5,30.5 39.209558,38.75 38.919115,47 h 20.68866 20.68866 z M 80.206937,20.75 c 3.056085,-2.3375 6.274552,-4.7 7.152148,-5.25 0.877596,-0.55 1.888332,-2.9125 2.24608,-5.25 C 90.197288,6.3811142 90.06537,6 88.134081,6 86.787754,6 84.887594,7.5529493 82.933861,10.25 81.240584,12.5875 79.34032,14.5 78.71105,14.5 78.081781,14.5 76.96321,12.3625 76.225338,9.75 75.229628,6.2246059 74.394795,5 72.987189,5 c -2.156527,0 -3.630201,5.301901 -2.606913,9.379004 0.366859,1.461681 0.06499,2.836492 -0.776067,3.53451 -1.098755,0.911886 -2.12926,0.09451 -5.107791,-4.051385 -3.277588,-4.5621632 -3.853539,-4.9753729 -4.736285,-3.397994 -0.953842,1.704422 -0.34708,11.777147 0.82353,13.671234 C 60.877567,24.610916 64.16282,25 67.884226,25 c 6.421948,0 7.048891,-0.216227 12.322711,-4.25 z M 41,14.5 C 41,13.348485 39.722222,13 35.5,13 31.277778,13 30,13.348485 30,14.5 30,15.651515 31.277778,16 35.5,16 39.722222,16 41,15.651515 41,14.5 Z M 42.819551,6.75 C 42.52292,4.6613858 41.997911,4.5 35.5,4.5 29.002089,4.5 28.47708,4.6613858 28.180449,6.75 27.87299,8.9148625 28.149953,9 35.5,9 42.850047,9 43.12701,8.9148625 42.819551,6.75 Z M 98.680967,37.128769 C 93.906435,32.249592 90,27.624719 90,26.851275 90,24.059972 93.072765,21 95.875737,21 c 2.156484,0 4.666273,1.945676 11.443293,8.871231 4.77453,4.879177 8.68097,9.183761 8.68097,9.565742 0,1.195235 -2.24783,5.028585 -3.3997,5.797714 -2.92213,1.951154 -5.60923,0.386319 -13.919333,-8.105918 z m 12.883253,3.76732 C 112.4918,39.395228 97.113672,24.01915 95.358602,24.692633 c -2.457099,0.942877 -1.445876,2.672475 5.866368,10.033851 7.15158,7.199624 9.01533,8.311757 10.33925,6.169605 z"
       id="path823"
       inkscape:connector-curvature="0" />
    <path
       style="fill:#335b79"
       d="m 28,127.09773 c -5.861491,-1.2396 -9.892593,-3.9436 -13.625806,-9.13996 C 12.415201,115.231 10.258043,113 9.5805087,113 7.2704707,113 4,108.44202 4,105.22257 4,103.49088 4.9615014,99.694882 6.1366699,96.78702 7.785223,92.707806 8.2306417,89.67242 8.0864344,83.5 7.9062467,75.787532 7.7715001,75.368553 4.3373812,71.842746 -3.7545176,63.534802 0.48659839,48.020201 10.854081,48.003738 c 2.331518,-0.0037 2.347403,-0.07917 1.657378,-7.874287 -0.851606,-9.620473 0.157546,-12.001757 7.929796,-18.71183 L 25.8974,16.707128 25.306337,10.377565 C 24.490009,1.6357003 25.181032,1 35.5,1 45.82593,1 46.510349,1.6318667 45.690793,10.408301 l -0.593934,6.360299 4.880977,4.1157 c 5.979101,5.041652 7.199401,5.220484 5.952358,0.872302 -3.025038,-10.547694 2.240288,-20.5322431 8.053373,-15.2714736 1.826137,1.6526315 1.961315,1.5825512 3.34771,-1.7355598 2.2449,-5.3728012 7.773886,-5.57108865 11.161915,-0.4003026 l 1.609787,2.4568456 2.403056,-2.4030558 C 87.305736,-0.39664477 94,2.4102783 94,9.2225062 c 0,3.2630028 -0.36796,3.1714208 5.054903,1.2581228 2.925457,-1.0321618 4.633227,-1.1924942 5.325727,-0.4999998 1.43833,1.4383298 0.0471,2.5173228 -6.364411,4.9361018 -3.01608,1.137829 -8.285713,3.96885 -11.710296,6.291157 -5.434448,3.685252 -6.051732,4.417624 -4.852526,5.757244 0.813615,0.90888 1.662165,5.262029 2.080572,10.673544 l 0.706582,9.138675 3.629725,0.600319 c 1.996348,0.330175 9.300607,0.605271 16.231684,0.611324 L 116.70392,48 l 3.35532,-7.25 c 4.09452,-8.847211 5.06129,-17.682449 2.48088,-22.672414 C 120.78138,14.676547 115.93349,12 111.53212,12 109.92495,12 109,11.440606 109,10.468615 c 0,-2.2724591 2.27371,-2.7412723 7.0532,-1.4542892 12.07146,3.2505072 15.21749,17.3474282 7.42367,33.2644852 l -2.76593,5.64875 3.06712,2.865115 c 5.7163,5.339829 5.62672,15.154061 -0.19287,21.129368 -3.34426,3.433738 -3.49225,3.900415 -3.67162,11.577956 -0.14421,6.17242 0.30121,9.207806 1.94976,13.28702 2.821,6.98033 2.76664,11.27252 -0.17778,14.03867 -1.27295,1.19587 -2.80574,2.17431 -3.4062,2.17431 -0.60045,0 -2.6974,2.23496 -4.65987,4.96658 -2.01418,2.80359 -5.43022,5.96103 -7.84381,7.25 -4.19903,2.24249 -4.90304,2.28645 -39.27567,2.45238 -19.25,0.0929 -36.575,-0.16412 -38.5,-0.57123 z m 77.26265,-5.93711 c 5.61307,-3.48985 6.48008,-5.76168 3.43944,-9.01235 C 106.48115,109.77392 100.12399,94.363611 95.543226,80.25 L 93.839267,75 H 64.002097 34.164928 l -3.14006,9.425356 c -3.237501,9.717839 -5.460863,13.105257 -6.98408,10.640641 -0.48532,-0.785266 0.982289,-6.337918 3.683313,-13.935698 6.609248,-18.59132 6.471842,-17.934356 4.221651,-20.184547 C 30.875589,59.875589 29.302038,59 28.448973,59 26.58336,59 25.812634,60.772285 16.290314,86.958861 9.2592493,106.29443 8.9505646,107.49068 10.668135,108.7466 c 3.347601,2.44783 5.669298,1.09453 8.572079,-4.9966 1.507117,-3.1625 3.146472,-5.75 3.643011,-5.75 3.415518,0 0.690724,9.7836 -3.953173,14.1942 l -2.836713,2.69421 2.864902,3.06689 c 5.598895,5.99363 5.954368,6.03826 46.041759,5.77992 36.33122,-0.23413 36.5174,-0.24604 40.26265,-2.5746 z M 36.356999,112.00928 C 32.070835,110.27788 31,107.22405 31,96.732039 31,87.636069 31.181656,86.727434 33.454545,84.454545 36.702343,81.206748 41.84661,81.14337 44.825686,84.314451 46.773022,86.387295 47,87.72469 47,97.12589 c 0,9.18159 -0.255506,10.77124 -2.038955,12.68555 C 43.83962,111.01515 42.526424,112 42.042832,112 c -0.483591,0 -1.478561,0.19686 -2.211045,0.43747 -0.732483,0.24061 -2.296138,0.0479 -3.474788,-0.42819 z m 25,-0.0102 C 57.094375,110.29746 56,107.2154 56,96.912352 56,88.671354 56.301267,86.886719 58.07258,84.634859 59.671235,82.602498 61.026624,82 64,82 c 2.973376,0 4.328765,0.602498 5.92742,2.634859 C 71.704266,86.893752 72,88.669408 72,97.079095 c 0,8.772705 -0.237785,10.070935 -2.25,12.284325 -2.668872,2.9357 -5.452047,3.80971 -8.393001,2.63568 z m 24.733722,-0.0985 c -4.351702,-1.72313 -5.025057,-3.71651 -5.058918,-14.976286 -0.02942,-9.78303 0.141667,-10.738652 2.282648,-12.75 3.173566,-2.98141 8.092087,-2.858685 11.231004,0.280231 C 96.823905,86.732996 97,87.625777 97,96.898782 c 0,8.959698 -0.231988,10.244868 -2.25,12.464638 -2.734269,3.00764 -5.456663,3.8053 -8.659279,2.53718 z m 31.686769,-3.4573 C 118.99987,107.58711 120,106.12103 120,105.18535 c 0,-0.93568 -2.42475,-8.44766 -5.38833,-16.693292 -10.82069,-30.106625 -10.53365,-29.501579 -13.98411,-29.476745 -5.057903,0.0364 -5.334042,1.293722 -2.239322,10.196086 5.703362,16.406465 13.957662,38.313691 14.897532,39.538601 1.2387,1.61438 1.80412,1.57577 4.49172,-0.3067 z M 13,77 C 13.854313,75.403701 13.76049,75 12.535184,75 11.666667,75 11,75.868517 11,77 c 0,1.1 0.209167,2 0.464816,2 C 11.720465,79 12.411298,78.1 13,77 Z m 104,-0.5 c 0,-0.825 -0.66088,-1.5 -1.46862,-1.5 -0.89459,0 -1.24363,0.586289 -0.89301,1.5 0.31659,0.825 0.97746,1.5 1.46862,1.5 C 116.59814,78 117,77.325 117,76.5 Z M 84.398211,71.349114 c 6.508859,-0.5502 7.601867,-0.898252 7.065801,-2.25 -3.094571,-7.803292 -0.02282,-13.050742 8.096312,-13.830889 5.954356,-0.572138 7.160936,0.473188 10.655886,9.231775 2.15691,5.405369 2.70915,6.030932 5.57232,6.312116 C 120.70965,71.295404 124,67.451736 124,61.219769 124,57.2763 123.50855,55.886936 121.41944,53.924314 L 118.83887,51.5 H 64 9.1611281 L 6.580564,53.924314 C 4.4914487,55.886936 4,57.2763 4,61.219769 c 0,6.231967 3.290347,10.075635 8.211466,9.592347 2.863172,-0.281184 3.415418,-0.906747 5.572327,-6.312116 3.494945,-8.758587 4.701526,-9.803913 10.655883,-9.231775 8.160721,0.784142 11.189979,6.018527 8.059607,13.92654 -0.57054,1.441311 0.127104,1.750137 4.664924,2.065018 9.952098,0.690579 35.496846,0.743361 43.234004,0.08933 z M 35.143854,37.624619 c 0.43273,-6.637175 1.088544,-10.157154 2,-10.734687 0.74588,-0.472619 3.718646,-0.866197 6.606146,-0.874619 2.8875,-0.0084 5.25,-0.428611 5.25,-0.933754 0,-0.505142 -1.515615,-1.855142 -3.368034,-3 C 43.061891,20.493166 40.609764,20 35.282005,20 c -6.123331,0 -7.476115,0.357988 -11.000554,2.911078 -2.210244,1.601092 -5.039381,4.344596 -6.286971,6.096674 -2.00691,2.818445 -2.201626,3.98141 -1.689464,10.090485 0.318385,3.797688 0.867436,7.371779 1.220114,7.942424 0.383166,0.619976 3.927998,0.921187 8.808051,0.748437 L 34.5,47.5 Z M 64.253485,47 h 16.003486 l -0.463192,-8.001374 c -0.254756,-4.400755 -0.800264,-8.338255 -1.21224,-8.75 C 77.761191,29.42874 40.451379,29.190126 39.70616,30 c -0.253045,0.275 -0.664795,4.191116 -0.914998,8.702481 -0.502693,9.063951 -0.08241,9.619051 6.583838,8.695727 C 46.95625,47.179194 55.451568,47 64.253485,47 Z M 81.004884,20.396426 C 88.656453,14.675883 91.202532,10.576131 89.63709,6.4966553 89.043304,4.949273 88.74585,4.9228037 86.737711,6.2386504 85.50697,7.0451018 83.456533,9.2338174 82.181184,11.102463 80.905834,12.971108 79.352358,14.5 78.729013,14.5 78.105669,14.5 77.124136,12.605309 76.54783,10.289576 74.292963,1.2289963 70,2.8035308 70,12.69113 c 0,6.765298 -1.81103,7.013409 -5.481099,0.75091 -4.224182,-7.2080223 -6.388288,-4.5559487 -5.046388,6.184259 l 0.658376,5.269464 4.684556,0.37187 c 2.576505,0.204529 5.586753,0.452982 6.689439,0.552119 1.102686,0.09914 5.377686,-2.34136 9.5,-5.423326 z M 41,14.5 C 41,13.348485 39.722222,13 35.5,13 31.277778,13 30,13.348485 30,14.5 30,15.651515 31.277778,16 35.5,16 39.722222,16 41,15.651515 41,14.5 Z M 42.819551,6.75 C 42.52292,4.6613858 41.997911,4.5 35.5,4.5 29.002089,4.5 28.47708,4.6613858 28.180449,6.75 27.87299,8.9148625 28.149953,9 35.5,9 42.850047,9 43.12701,8.9148625 42.819551,6.75 Z M 98.680967,37.128769 C 93.906435,32.249592 90,27.624719 90,26.851275 90,24.059972 93.072765,21 95.875737,21 c 2.156484,0 4.666273,1.945676 11.443293,8.871231 4.77453,4.879177 8.68097,9.183761 8.68097,9.565742 0,1.195235 -2.24783,5.028585 -3.3997,5.797714 -2.92213,1.951154 -5.60923,0.386319 -13.919333,-8.105918 z m 12.883253,3.76732 C 112.4918,39.395228 97.113672,24.01915 95.358602,24.692633 c -2.457099,0.942877 -1.445876,2.672475 5.866368,10.033851 7.15158,7.199624 9.01533,8.311757 10.33925,6.169605 z"
       id="path821"
       inkscape:connector-curvature="0" />
    <path
       style="fill:#040404"
       d="m 24.38571,124.72494 c -4.306193,-1.7568 -8.159596,-5.06886 -9.944001,-8.54703 -0.970221,-1.89115 -3.320066,-4.21743 -5.2218771,-5.16951 C 3.9016125,108.34601 3.3517784,105.29665 6.42495,95.508046 8.5327584,88.7943 8.9185348,85.961272 8.518104,80.13654 8.0766055,73.714429 7.7398237,72.783264 5.1719339,70.884741 -3.1809941,64.709155 0.30451284,48.750197 10.357303,47.142691 c 2.993598,-0.478696 3.82327,-1.016016 3.469933,-2.24723 -0.255403,-0.889961 -0.754159,-4.54311 -1.108347,-8.11811 -0.607003,-6.126797 -0.471852,-6.736788 2.353909,-10.624095 1.648838,-2.268252 4.838456,-5.418252 7.088039,-7 l 4.090152,-2.875905 -0.633711,-6.742713 c -0.863465,-9.1872919 -0.27209,-9.757287 10.123273,-9.757287 10.372144,0 10.967074,0.5703711 10.177421,9.757287 l -0.579563,6.742713 5.538446,4.329291 c 3.046146,2.38111 5.686982,4.180756 5.868524,3.999214 0.181543,-0.181543 -0.09678,-2.579724 -0.618501,-5.329291 -1.186336,-6.252247 -0.323522,-11.7935826 2.190587,-14.0688203 1.703414,-1.5415684 2.255109,-1.585347 4.677148,-0.3711451 1.510266,0.7571171 3.083438,1.5410159 3.495938,1.7419973 0.4125,0.2009814 0.75,-0.5023348 0.75,-1.562925 0,-2.6088268 3.099056,-5.2383209 6.173753,-5.2383209 2.561266,0 5.826247,2.7059866 5.826247,4.8287407 0,1.8591103 1.461155,1.3737365 4,-1.3287407 2.705782,-2.880173 7.090408,-3.3009172 9.104828,-0.87369 0.742345,0.8944705 1.349717,3.3694705 1.349717,5.5 0,2.13053 0.06777,3.87369 0.150604,3.87369 0.08283,0 1.766105,-0.675 3.740608,-1.5 1.974503,-0.825 4.541962,-1.5 5.705452,-1.5 3.78918,0 1.46895,2.372279 -4.623924,4.727654 -3.260007,1.26025 -8.721918,4.183893 -12.137581,6.496986 -5.396155,3.654286 -6.033146,4.406837 -4.858988,5.740492 1.193526,1.355652 2.44884,10.398986 2.538142,18.284868 l 0.03114,2.75 h 16.322741 16.32275 l 2.15954,-4.324052 c 5.37517,-10.762749 6.66469,-19.933138 3.62855,-25.804386 -1.66148,-3.212958 -6.63079,-5.871562 -10.97479,-5.871562 -1.9474,0 -2.51746,-0.441985 -2.25711,-1.75 0.27635,-1.3883812 1.16972,-1.6792382 4.32333,-1.407559 13.93206,1.20023 18.05254,15.641444 9.61039,33.681908 l -2.82319,6.033016 2.44689,1.84569 c 6.27406,4.732535 6.6715,15.568444 0.77498,21.129574 -2.93951,2.772316 -3.33082,3.805464 -3.79851,10.029039 -0.42624,5.671971 -0.0482,8.44057 2.07134,15.169027 3.08313,9.787404 2.53506,12.836454 -2.78619,15.500354 -1.93133,0.96685 -4.25538,3.28562 -5.26443,5.25245 -0.99362,1.93678 -3.6742,4.7578 -5.95684,6.26895 l -4.15024,2.74755 -38.574608,0.20415 c -22.875888,0.12106 -39.532953,-0.18684 -40.929444,-0.75656 z m 78.8528,-3.56345 c 2.22114,-0.88872 5.11695,-2.99395 6.43514,-4.67828 l 2.3967,-3.06243 -2.7368,-2.57171 c -1.9448,-1.82749 -4.56897,-7.56372 -9.06789,-19.821719 l -6.331087,-17.25 H 64.204214 34.473856 l -3.49363,9.75 c -2.250618,6.281012 -4.07109,9.865037 -5.116652,10.073324 -0.892663,0.177828 -1.623023,-0.196424 -1.623023,-0.831671 0,-0.635247 2.25,-7.425184 5,-15.088749 2.75,-7.663565 5,-14.815257 5,-15.892649 0,-2.426589 -5.316513,-5.361961 -8.107263,-4.476211 -2.295377,0.728524 -1.755149,-0.503039 -11.51746,26.25644 -7.6196339,20.886185 -7.9493049,23.007795 -3.82127,24.591865 4.616065,1.77135 6.497882,0.74918 8.988412,-4.88235 2.342349,-5.296466 3.6912,-6.549047 4.916842,-4.565916 0.985331,1.594296 -2.547838,9.428526 -5.529209,12.260116 l -2.836713,2.69421 2.864902,3.06689 c 5.480725,5.86713 6.193153,5.9627 44.771523,6.00556 30.168015,0.0335 35.809998,-0.19302 39.268195,-1.57672 z M 34.101428,108.86578 c -2.087422,-1.69029 -2.401614,-2.90805 -2.714215,-10.519832 -0.194438,-4.734543 -0.07053,-9.735782 0.275343,-11.113865 1.59871,-6.369768 8.615167,-8.508469 13.12345,-4.000187 2.275835,2.275836 2.454545,3.176114 2.454545,12.365142 0,8.512082 -0.292467,10.282402 -2.07258,12.545452 -2.535063,3.22281 -7.573122,3.55209 -11.066543,0.72329 z m 7.487038,-2.35356 c 1.477106,-1.08009 1.687897,-2.7256 1.44113,-11.250003 -0.276895,-9.565169 -0.385934,-9.998601 -2.594087,-10.31163 -4.265712,-0.604709 -5.194958,1.341048 -5.194958,10.87778 0,6.672233 0.380787,9.186913 1.571429,10.377553 1.901191,1.90119 2.539368,1.94212 4.776486,0.3063 z m 16.724665,1.63027 c -1.780113,-2.26305 -2.07258,-4.03337 -2.07258,-12.545452 0,-9.189028 0.17871,-10.089306 2.454545,-12.365142 2.979083,-2.979082 7.397151,-3.204288 10.684671,-0.544638 2.158561,1.746306 2.389401,2.796341 2.694859,12.258257 0.302482,9.369715 0.130123,10.607635 -1.82258,13.090095 -3.012204,3.82939 -8.968838,3.88272 -11.938915,0.10688 z m 7.993161,-1.40032 c 1.68949,-0.90419 1.934259,-2.15928 1.934259,-9.918215 0,-10.807787 -0.411341,-12.046604 -4,-12.046604 -3.587933,0 -4,1.239506 -4,12.032097 0,7.391242 0.291506,9.038312 1.75,9.887802 2.195599,1.27882 2.013707,1.27693 4.315741,0.0449 z m 17.006839,1.40032 c -1.780113,-2.26305 -2.07258,-4.03337 -2.07258,-12.545452 0,-9.189028 0.17871,-10.089306 2.454545,-12.365142 4.508283,-4.508282 11.52474,-2.369581 13.12345,4.000187 0.345876,1.378083 0.469781,6.379322 0.275343,11.113865 -0.312601,7.611782 -0.626793,8.829542 -2.714215,10.519832 -3.493421,2.8288 -8.53148,2.49952 -11.066543,-0.72329 z m 8.355991,-1.93657 c 1.190642,-1.19064 1.571429,-3.70532 1.571429,-10.377553 0,-9.536732 -0.929246,-11.482489 -5.194958,-10.87778 -2.208153,0.313029 -2.317192,0.746461 -2.594087,10.31163 -0.246767,8.524403 -0.03598,10.169913 1.44113,11.250003 2.237118,1.63582 2.875295,1.59489 4.776486,-0.3063 z m 27.622578,0.52028 c 2.3934,-2.3934 2.81451,-0.5962 -5.61157,-23.948849 -8.3163,-23.048377 -9.07138,-24.748362 -11.30768,-25.458137 -2.666216,-0.846224 -7.07735,1.392615 -7.70996,3.913133 -0.313397,1.248676 2.300492,9.865673 6.39399,21.078561 10.02512,27.460722 9.53175,26.466442 13.13304,26.466442 1.74306,0 3.93036,-0.87933 5.10218,-2.05115 z m -2.40785,-32.638879 c -1.39615,-1.396155 -2.30472,0.416632 -1.34824,2.69003 l 1.05181,2.5 0.40737,-2.335864 c 0.22405,-1.284725 0.17413,-2.5691 -0.11094,-2.854166 z m -103.643299,1.69003 c 0.854313,-1.596299 0.76049,-2 -0.464816,-2 -0.868517,0 -1.535184,0.868517 -1.535184,2 0,1.1 0.209167,2 0.464816,2 0.255649,0 0.946482,-0.9 1.535184,-2 z m 79,-6.350777 c 0,-0.742927 -0.467637,-2.692242 -1.039194,-4.331811 -2.021008,-5.797467 2.742754,-11.317412 9.767023,-11.317412 4.4509,0 6.85433,2.438261 9.33788,9.473195 2.24313,6.353949 2.39686,6.526805 5.80477,6.526805 5.33687,0 8.12952,-3.174138 8.12952,-9.240055 0,-6.143105 -1.12377,-8.258839 -5.12811,-9.654761 -4.41726,-1.539862 -105.326523,-1.539862 -109.7437746,0 -3.9835703,1.38868 -5.1281144,3.512249 -5.1281144,9.514623 0,6.147858 2.7530736,9.380193 7.989383,9.380193 3.580443,0 3.678925,-0.108122 5.944912,-6.526805 2.483541,-7.034934 4.886972,-9.473195 9.337871,-9.473195 7.024274,0 11.788036,5.519945 9.767028,11.317412 -2.083067,5.975489 -3.472724,5.682588 26.960806,5.682588 22.847457,0 28,-0.248569 28,-1.350777 z M 35.555754,36.64442 c 0.339529,-5.573112 0.832302,-10.347907 1.095051,-10.610657 0.26275,-0.262749 3.517136,-0.7217 7.23197,-1.019891 l 6.754243,-0.542166 -3.410459,-2.847178 c -3.135353,-2.617508 -4.067641,-2.847177 -11.557444,-2.847177 -8.118562,0 -8.163291,0.01435 -12.821305,4.114502 -5.413076,4.76478 -7.568191,8.401063 -7.054819,11.903455 0.200097,1.365124 0.635229,4.619543 0.966959,7.232043 l 0.603147,4.75 h 8.787666 8.787666 z m 44.669484,2.382931 c -0.0084,-4.2625 -0.4423,-8.425 -0.964174,-9.25 -0.788944,-1.247196 -4.143148,-1.5 -19.901993,-1.5 -10.424223,0 -19.183174,0.230329 -19.464336,0.511843 -0.281162,0.281514 -0.830258,4.444014 -1.220213,9.25 l -0.70901,8.738157 h 21.13752 21.137519 z m 0.712355,-19.33985 c 3.741627,-2.799417 7.365458,-5.810425 8.052958,-6.691129 1.482738,-1.899423 1.667515,-7.8429488 0.270667,-8.7062483 -1.592184,-0.9840234 -4.687017,1.2113027 -7.012849,4.9745773 -2.641728,4.274406 -5.007818,4.621751 -5.007818,0.735156 0,-3.1910843 -2.483719,-7.222506 -4.449715,-7.222506 -1.868616,0 -2.550285,2.2938384 -2.550285,8.581787 0,6.769989 -1.50117,7.000245 -5.261102,0.806972 -1.518606,-2.501413 -3.318606,-4.3641377 -4,-4.1393874 -1.594431,0.5259058 -2.167034,10.4943454 -0.80812,14.0685604 0.961181,2.528099 1.391246,2.682068 7.491513,2.682068 6.223669,0 6.732615,-0.195142 13.274751,-5.08985 z m -39.697042,-6.41015 c 0,-1.151515 -1.277778,-1.5 -5.5,-1.5 -4.222222,0 -5.5,0.348485 -5.5,1.5 0,1.151515 1.277778,1.5 5.5,1.5 4.222222,0 5.5,-0.348485 5.5,-1.5 z m 1.819551,-7.75 c -0.296631,-2.0886142 -0.82164,-2.25 -7.319551,-2.25 -6.497911,0 -7.02292,0.1613858 -7.319551,2.25 -0.307459,2.1648625 -0.0305,2.25 7.319551,2.25 7.350047,0 7.62701,-0.085138 7.319551,-2.25 z m 56.57433,31.088299 c -4.598962,-4.488935 -8.631296,-9.010968 -8.960743,-10.048963 -0.923851,-2.910797 2.139291,-6.789336 5.361993,-6.789336 3.814476,0 19.204868,15.319095 19.204868,19.1159 0,2.905971 -2.75889,5.8841 -5.45093,5.8841 -0.98639,0 -5.55623,-3.672765 -10.155188,-8.161701 z m 12.170338,3.05779 c 0.92758,-1.500861 -14.450547,-16.876939 -16.205617,-16.203456 -2.457099,0.942877 -1.445876,2.672475 5.866367,10.033851 7.15158,7.199624 9.01533,8.311757 10.33925,6.169605 z"
       id="path819"
       inkscape:connector-curvature="0" />
  </g>
</svg>
